<?xml version="1.0" encoding="UTF-8"?>
<!DOCTYPE svg PUBLIC "-//W3C//DTD SVG 1.1//EN" "http://www.w3.org/Graphics/SVG/1.1/DTD/svg11.dtd">
<!-- Creator: CorelDRAW X7 -->
<svg xmlns="http://www.w3.org/2000/svg" xml:space="preserve" width="37.2233mm" height="2.4553mm" version="1.1" style="shape-rendering:geometricPrecision; text-rendering:geometricPrecision; image-rendering:optimizeQuality; fill-rule:evenodd; clip-rule:evenodd"
viewBox="0 0 1899 125"
 xmlns:xlink="http://www.w3.org/1999/xlink">
 <defs>
  <style type="text/css">
   <![CDATA[
    .fil1 {fill:#538ADB}
    .fil0 {fill:#2B2A29;fill-rule:nonzero}
   ]]>
  </style>
 </defs>
 <g id="Слой_x0020_1">
  <metadata id="CorelCorpID_0Corel-Layer"/>
  <path class="fil0" d="M74 56l15 0 -3 -8c-2,-6 -4,-11 -7,-14 -3,-3 -5,-4 -7,-4 -2,0 -5,1 -7,4 -3,3 -6,8 -8,14l-2 8 19 0zm21 28l-10 0 -27 0 -10 0 -10 41 -38 0c15,-57 23,-87 24,-89 3,-7 8,-15 15,-23 7,-9 15,-13 22,-13l21 0c9,0 16,4 23,13 7,8 12,16 14,23 1,2 9,32 25,89l-38 0 -11 -41zm103 -55l0 68 24 0 21 0c9,0 15,-2 18,-5 3,-4 5,-9 5,-15l0 -29c0,-6 -2,-11 -5,-14 -3,-4 -9,-5 -18,-5l-21 0 -24 0zm-38 96l0 -125 44 0 55 0c17,0 29,3 35,9 7,6 10,15 10,27l0 53c0,12 -3,21 -10,27 -6,6 -18,9 -35,9l-55 0 -44 0zm274 0l-69 0c-17,0 -28,-3 -35,-9 -6,-6 -10,-15 -10,-27l0 -89 38 0 0 77c0,6 2,11 5,15 3,3 9,5 19,5l10 0 1 -97 38 0 0 97 12 0c10,0 16,-2 19,-5 3,-3 4,-8 4,-15l0 -77 38 0 0 89c0,12 -3,21 -9,27 -6,6 -18,9 -35,9l-26 0zm160 -69l16 0 -3 -8c-2,-6 -4,-11 -7,-14 -3,-3 -5,-4 -7,-4 -2,0 -5,1 -8,4 -2,3 -5,8 -7,14l-2 8 18 0zm22 28l-10 0 -27 0 -10 0 -10 41 -38 0c15,-57 23,-87 24,-89 2,-7 7,-15 15,-23 7,-9 14,-13 22,-13l21 0c9,0 16,4 23,13 7,8 12,16 14,23 1,2 9,32 24,89l-38 0 -10 -41zm209 23l0 18 -99 0c-17,0 -29,-3 -35,-9 -7,-6 -10,-15 -10,-27l0 -89 38 0 0 77c0,6 2,11 5,15 3,3 9,5 18,5l83 0 0 10zm160 0l0 18 -99 0c-17,0 -28,-3 -35,-9 -6,-6 -10,-15 -10,-27l0 -89 38 0 0 77c0,6 2,11 5,15 3,3 9,5 18,5l83 0 0 10zm181 -78l-52 0 0 -29 44 0 55 0 45 0 0 29 -54 0 0 96 -38 0 0 -96zm252 60l0 -53c0,-12 -3,-21 -9,-27 -6,-6 -18,-9 -35,-9l-55 0c-17,0 -28,3 -35,9 -6,6 -9,15 -9,27l0 53c0,12 3,21 9,27 7,6 18,9 35,9l55 0c17,0 29,-3 35,-9 6,-6 9,-15 9,-27zm-38 -12c0,7 -1,12 -4,15 -3,3 -9,5 -19,5l-21 0c-10,0 -16,-2 -19,-5 -3,-4 -4,-9 -4,-15l0 -29c0,-6 1,-11 4,-14 3,-4 9,-5 19,-5l21 0c10,0 16,1 19,4 3,3 4,8 4,15l0 29zm93 -48l0 68 23 0 21 0c9,0 16,-2 19,-5 3,-4 4,-9 4,-15l0 -29c0,-6 -1,-11 -4,-14 -3,-4 -10,-5 -19,-5l-21 0 -23 0zm-38 96l0 -125 44 0 55 0c17,0 28,3 35,9 6,6 9,15 9,27l0 53c0,12 -3,21 -9,27 -7,6 -18,9 -35,9l-55 0 -44 0zm234 -69l15 0 -3 -8c-2,-6 -4,-11 -7,-14 -3,-3 -5,-4 -7,-4 -2,0 -5,1 -7,4 -3,3 -6,8 -8,14l-2 8 19 0zm21 28l-10 0 -27 0 -10 0 -10 41 -38 0c15,-57 23,-87 24,-89 3,-7 8,-15 15,-23 7,-9 15,-13 22,-13l21 0c9,0 16,4 23,13 7,8 12,16 14,23 1,2 9,32 25,89l-38 0 -11 -41zm117 -5l-52 -79 38 0 34 48 34 -48 38 0 -54 79 0 46 -38 0 0 -46z"/>
  <path class="fil1" d="M1043 35c12,0 21,10 21,22 0,11 -9,21 -21,21 -11,0 -21,-10 -21,-21 0,-12 10,-22 21,-22z"/>
 </g>
</svg>
