<?xml version="1.0" encoding="UTF-8"?>
<!DOCTYPE svg PUBLIC "-//W3C//DTD SVG 1.1//EN" "http://www.w3.org/Graphics/SVG/1.1/DTD/svg11.dtd">
<!-- Creator: CorelDRAW X7 -->
<svg xmlns="http://www.w3.org/2000/svg" xml:space="preserve" width="19.3884mm" height="18.7348mm" version="1.1" style="shape-rendering:geometricPrecision; text-rendering:geometricPrecision; image-rendering:optimizeQuality; fill-rule:evenodd; clip-rule:evenodd"
viewBox="0 0 276 267"
 xmlns:xlink="http://www.w3.org/1999/xlink">
 <defs>
  <style type="text/css">
   <![CDATA[
    .fil0 {fill:#538ADB}
   ]]>
  </style>
 </defs>
 <g id="Слой_x0020_1">
  <metadata id="CorelCorpID_0Corel-Layer"/>
  <path class="fil0" d="M138 0c33,0 64,11 88,30 0,3 0,6 0,11 0,5 0,9 0,11l0 38c0,1 0,2 -1,2 -3,-3 -6,-6 -10,-9 -7,-6 -16,-8 -26,-8 -16,0 -29,5 -40,17 -9,12 -14,26 -14,43 0,16 5,29 14,41 11,12 24,18 39,18 14,0 27,-6 37,-18 1,0 2,-1 2,-1 1,0 1,3 1,8 0,6 1,8 2,8 1,0 3,0 5,0 3,0 4,0 6,0 -1,0 1,0 4,0 3,0 5,0 7,0 2,0 3,-1 3,-1l0 -2c-2,-16 -2,-39 -2,-70 0,-10 0,-25 1,-46 0,-3 0,-7 0,-11 14,21 22,46 22,72 0,74 -62,134 -138,134 -76,0 -138,-60 -138,-134 0,-73 62,-133 138,-133zm-15 84c0,1 0,1 0,3 -3,18 -5,33 -5,46 0,1 1,18 3,53l0 2c0,2 -1,3 -3,3 -2,0 -5,0 -10,1 -4,0 -7,0 -10,0 -1,0 -2,-2 -3,-8 -1,-5 -2,-8 -2,-8 -1,0 -3,2 -7,5 -4,3 -9,6 -13,8 -6,3 -12,5 -18,5 -15,0 -28,-6 -39,-18 -10,-12 -14,-26 -14,-41 0,-17 4,-32 14,-43 11,-12 25,-18 42,-18 12,0 22,4 31,13 1,1 4,3 6,6 1,1 1,1 1,1 1,0 1,-3 2,-8 1,-5 2,-7 3,-7 3,0 7,0 12,2 7,1 10,2 10,3zm-30 50c0,-10 -3,-18 -9,-25 -6,-8 -13,-11 -23,-11 -9,0 -17,3 -23,11 -6,7 -9,15 -9,25 0,9 3,17 9,24 6,8 14,11 23,11 9,0 17,-3 23,-11 6,-7 9,-15 9,-24zm133 0c0,-10 -3,-18 -9,-25 -6,-7 -14,-11 -23,-11 -10,0 -18,3 -24,11 -6,7 -9,15 -9,25 0,10 3,18 9,25 7,7 15,11 24,11 9,0 17,-4 23,-11 6,-7 9,-15 9,-25z"/>
 </g>
</svg>
